<?xml version="1.0" encoding="utf-8"?>
<!-- Generator: Adobe Illustrator 16.0.0, SVG Export Plug-In . SVG Version: 6.00 Build 0)  -->
<!DOCTYPE svg PUBLIC "-//W3C//DTD SVG 1.1//EN" "http://www.w3.org/Graphics/SVG/1.1/DTD/svg11.dtd">
<svg version="1.1" id="Layer_1" xmlns="http://www.w3.org/2000/svg" xmlns:xlink="http://www.w3.org/1999/xlink" x="0px" y="0px"
	 width="39.997px" height="40px" viewBox="-3.709 -3.71 39.997 40" enable-background="new -3.709 -3.71 39.997 40"
	 xml:space="preserve">
<circle fill="#FFFFFF" cx="16.29" cy="16.29" r="20"/>
<path fill="#35495E" d="M16.289-3.635c-11.043,0-19.998,8.954-19.998,20.001c0,8.835,5.729,16.33,13.678,18.976
	c0.999,0.184,1.365-0.435,1.365-0.964c0-0.475-0.018-1.731-0.027-3.401c-5.562,1.207-6.736-2.683-6.736-2.683
	c-0.91-2.309-2.221-2.926-2.221-2.926c-1.816-1.24,0.137-1.215,0.137-1.215c2.008,0.141,3.063,2.062,3.063,2.062
	c1.784,3.056,4.68,2.175,5.821,1.662c0.182-1.293,0.698-2.174,1.269-2.674C8.2,24.699,3.53,22.982,3.53,15.319
	c0-2.183,0.78-3.968,2.059-5.367C5.384,9.446,4.697,7.414,5.785,4.66c0,0,1.68-0.538,5.499,2.05
	c1.595-0.443,3.306-0.665,5.007-0.672c1.699,0.007,3.408,0.229,5.007,0.672c3.817-2.588,5.495-2.05,5.495-2.05
	c1.091,2.754,0.404,4.787,0.198,5.292c1.28,1.399,2.056,3.184,2.056,5.367c0,7.683-4.677,9.374-9.133,9.869
	c0.72,0.617,1.357,1.838,1.357,3.704c0,2.673-0.023,4.831-0.023,5.486c0,0.536,0.359,1.157,1.374,0.961
	c7.941-2.649,13.665-10.141,13.665-18.973C36.288,5.319,27.334-3.635,16.289-3.635z"/>
</svg>
